<svg width="128" height="128" viewBox="0 0 128 128" xmlns="http://www.w3.org/2000/svg">
  <defs>
    <linearGradient id="bg" x1="0%" y1="0%" x2="100%" y2="100%">
      <stop offset="0%" style="stop-color:#0f1419;stop-opacity:1" />
      <stop offset="100%" style="stop-color:#1a2332;stop-opacity:1" />
    </linearGradient>
    <linearGradient id="accent" x1="0%" y1="0%" x2="100%" y2="100%">
      <stop offset="0%" style="stop-color:#00ff88;stop-opacity:1" />
      <stop offset="100%" style="stop-color:#00cc6a;stop-opacity:1" />
    </linearGradient>
  </defs>
  
  <!-- Background -->
  <rect width="128" height="128" fill="url(#bg)" rx="16"/>
  
  <!-- Circuit pattern -->
  <g stroke="url(#accent)" stroke-width="2" fill="none" opacity="0.3">
    <path d="M20 20 L40 20 L40 40 L60 40"/>
    <path d="M80 20 L100 20 L100 40 L108 40"/>
    <path d="M20 60 L30 60 L30 80 L50 80"/>
    <path d="M70 60 L90 60 L90 80 L108 80"/>
    <path d="M20 100 L40 100 L40 108"/>
    <path d="M60 100 L80 100 L80 108"/>
  </g>
  
  <!-- Central gear/cog representing machinery -->
  <g transform="translate(64,64)">
    <circle r="24" fill="url(#accent)" opacity="0.8"/>
    <circle r="16" fill="url(#bg)"/>
    <circle r="8" fill="url(#accent)"/>
    
    <!-- Gear teeth -->
    <g fill="url(#accent)" opacity="0.8">
      <rect x="-2" y="-28" width="4" height="8"/>
      <rect x="-2" y="20" width="4" height="8"/>
      <rect x="-28" y="-2" width="8" height="4"/>
      <rect x="20" y="-2" width="8" height="4"/>
      <rect x="-20" y="-20" width="6" height="4" transform="rotate(45)"/>
      <rect x="14" y="-20" width="6" height="4" transform="rotate(-45)"/>
      <rect x="-20" y="14" width="6" height="4" transform="rotate(-45)"/>
      <rect x="14" y="14" width="6" height="4" transform="rotate(45)"/>
    </g>
  </g>
  
  <!-- Rebellion spark -->
  <g transform="translate(90,38)" fill="url(#accent)">
    <path d="M0 0 L-4 8 L0 6 L4 14 L0 6 Z" opacity="0.9"/>
  </g>
</svg>